<svg xmlns="http://www.w3.org/2000/svg" viewBox="0 0 21.75 21.9"><defs><style>.cls-1{fill:none;stroke-linecap:round;stroke-width:2.8px;}.cls-1,.cls-2{stroke:gray;stroke-miterlimit:10;}.cls-2,.cls-5{fill:#fff;}.cls-2{stroke-width:0.7px;}.cls-3{fill:gray;}.cls-4{fill:#e50012;}</style></defs><g id="レイヤー_2" data-name="レイヤー 2"><g id="レイヤー_1-2" data-name="レイヤー 1"><line class="cls-1" x1="16.5" y1="16.65" x2="20.35" y2="20.5"/><path class="cls-2" d="M9.74,19.3a9.37,9.37,0,0,1-6.65-2.74A9.54,9.54,0,0,1,9.86.35h.05A9.29,9.29,0,0,1,16.55,3.1,9.53,9.53,0,0,1,9.74,19.3Z"/><path class="cls-3" d="M15.18,4.47A7.58,7.58,0,0,0,4.46,15.19,7.58,7.58,0,0,0,15.18,4.47ZM4.89,4.9a7.33,7.33,0,0,1,5.5-2.16A8.89,8.89,0,0,0,5.2,5.2a8.9,8.9,0,0,0-2.47,5.19A7.38,7.38,0,0,1,4.89,4.9Zm4-.85a6.74,6.74,0,0,0-3,1.87,6.8,6.8,0,0,0-1.87,3A5.37,5.37,0,0,1,5.67,5.67,5.45,5.45,0,0,1,8.92,4.05ZM5.33,8.69A3.86,3.86,0,0,1,6.46,6.46,3.8,3.8,0,0,1,8.69,5.33,4.77,4.77,0,0,0,6.63,6.62,4.73,4.73,0,0,0,5.33,8.69Zm2.59,3a2.68,2.68,0,1,1,3.78,0A2.68,2.68,0,0,1,7.92,11.72Zm6.53-1.34a4.59,4.59,0,0,1-1.37,2.69,4.52,4.52,0,0,1-2.68,1.36,5.71,5.71,0,0,0,2.53-1.52A5.74,5.74,0,0,0,14.45,10.38Zm1.28,0A6,6,0,0,1,14,13.94a5.92,5.92,0,0,1-3.57,1.77,7.42,7.42,0,0,0,3.36-2A7.51,7.51,0,0,0,15.73,10.37ZM9.25,16.89a8.89,8.89,0,0,0,5.18-2.46,8.89,8.89,0,0,0,2.46-5.17,7.37,7.37,0,0,1-7.64,7.63Z"/><path class="cls-4" d="M11,9.83A1.16,1.16,0,1,1,9.82,8.66,1.16,1.16,0,0,1,11,9.83Z"/><path class="cls-5" d="M13.3,9.71A3.65,3.65,0,1,1,9.65,6.06,3.64,3.64,0,0,1,13.3,9.71Z"/><path class="cls-3" d="M9.41,7.17a.52.52,0,1,1-.51-.52A.51.51,0,0,1,9.41,7.17Z"/><path class="cls-3" d="M9.61,11.46a1.91,1.91,0,0,1-1.89-2.2.32.32,0,1,1,.63.09,1.28,1.28,0,0,0,2.17,1.1,1.27,1.27,0,0,0,.24-.33.31.31,0,0,1,.42-.14.3.3,0,0,1,.14.42,2.15,2.15,0,0,1-.35.5A2,2,0,0,1,9.61,11.46Z"/><path class="cls-3" d="M12.36,8a.52.52,0,1,1-.52-.51A.52.52,0,0,1,12.36,8Z"/><path class="cls-3" d="M9.74,9.66l-.1,0a.31.31,0,0,1-.19-.4l.88-2.47a.31.31,0,0,1,.4-.19.3.3,0,0,1,.19.4L10,9.45A.32.32,0,0,1,9.74,9.66Z"/></g></g></svg>