<svg xmlns="http://www.w3.org/2000/svg" viewBox="0 0 28 30"><defs><style>.cls-1{fill:#4b4b4b;}</style></defs><g id="レイヤー_2" data-name="レイヤー 2"><g id="レイヤー_1-2" data-name="レイヤー 1"><path class="cls-1" d="M.08,10.7l1.33,5.83a3,3,0,0,0,2.94,2.36H18.54l-.43,2.48a1.46,1.46,0,0,1-1.43,1.21H4a1,1,0,0,0,0,2H16.68a3.45,3.45,0,0,0,3.39-2.87L23.17,4a2,2,0,0,1,1.69-1.65h0L27.15,2h0a1,1,0,0,0-.29-2L24.9.3l-.33,0a4,4,0,0,0-3.36,3.31l-.33,1.88L2.78,7A3,3,0,0,0,.58,8.22,3,3,0,0,0,.08,10.7Z"/><path class="cls-1" d="M13.77,27.84a2.15,2.15,0,1,0,2.15-2.17A2.16,2.16,0,0,0,13.77,27.84Z"/><path class="cls-1" d="M4.24,27.84a2.15,2.15,0,1,0,2.14-2.17A2.15,2.15,0,0,0,4.24,27.84Z"/></g></g></svg>