<?xml version="1.0" encoding="utf-8"?>
<!-- Generator: Adobe Illustrator 24.2.1, SVG Export Plug-In . SVG Version: 6.00 Build 0)  -->
<svg version="1.1" id="レイヤー_1" xmlns="http://www.w3.org/2000/svg" xmlns:xlink="http://www.w3.org/1999/xlink" x="0px"
	 y="0px" viewBox="0 0 841.89 595.28" style="enable-background:new 0 0 841.89 595.28;" xml:space="preserve">
<style type="text/css">
	.st0{fill:#E60012;}
	.st1{fill:#FFFFFF;}
</style>
<g>
	<path class="st0" d="M382.55,300.29c3.37,4.13,9.25,10.87,10.12,16.75c0.87,5.88,0.43,24.32,0.43,24.32s0.11,1.65,0.58,1.97
		c1.12,0.78,3.28,2.12,4.87,2.21c2.25,0.12,3.63,0.38,3.63,0.38s1,1,1.37,1.5c0.38,0.5,3,2.62,5.51,3.37c2.5,0.75,13.5,0.75,16,0.5
		c2.5-0.25,3.87-2.75,4.13-4.37c0.25-1.63,0.25-9.5,1.13-14.5c0.87-5,3.24-8.25,7.12-9.5c3.87-1.25,4.75-0.75,10.75-0.37
		c6,0.37,14.37,1.37,14.37,1.37s-0.25,7.38-0.37,11.63c-0.13,4.25,0.19,6.27,0.37,6.63c0.88,1.74,8.25,3,10.25,3.5
		c2,0.5,2,0.75,4.13,2.5c2.12,1.75,5.12,2.12,7.25,2.88c2.13,0.75,10.04,0.85,12.88,0.38c2.25-0.38,4.25-0.63,4.25-3.5
		c0-2.88-0.12-24.75,0.62-38.75c0.75-14,3.38-19.62,4-22c0.63-2.37,3.11-11.8-1-16.12c-2.42-2.54-10.88-13.75-18.5-18.5
		c-7.63-4.75-16.38-4.12-29.25-4.25c-13.31-0.13-31.27,3.55-38,5.75c-5.48,1.79-15.74,2.3-21.94,2.82c0,0-2.65,0.59-3.59,2.31
		c-0.94,1.72-3.92,14.13-6.26,19.14C385.02,283.32,379.28,296.28,382.55,300.29z"/>
	<g>
		<path class="st1" d="M349.74,262.68l0.98-15.94c0,0,1.53-4.74,4.2-0.66c2.67,4.08,7.01,11.31,7.01,11.31L349.74,262.68z"/>
		<path class="st0" d="M388.57,267.32c-6.04,0.37-11.24-12.34-21-10.77c-4.81,0.78-15.46,5.06-17.02,6.88
			c-1.57,1.82-17.3,11.51-19.87,12.75c-2.56,1.24-4.13,3.7-4.69,4.82c-0.55,1.12-2.34,5.69-2.5,8.35c-0.16,2.58,3.81,6.79,6.91,7.73
			c1.72,0.52,4.71,1.41,12.07,0.66c7.37-0.74,17.67-3.48,23.27-3.48c0,0,6.2,2.13,9.57,0.54c3.37-1.59,2.72-4.24,5.95-7.4
			c3.24-3.15,9.34-1.88,10.63-5.15c1.3-3.27,9.62-17.5,6.2-16.52C390.67,267.87,388.57,267.32,388.57,267.32z"/>
		<g>
			<path class="st1" d="M343.97,293.5c-6.68,0-13.37-1.18-15.69-1.74c-0.57-0.14-0.92-0.71-0.78-1.28c0.14-0.57,0.71-0.92,1.28-0.78
				c5.48,1.32,19.71,3.1,26.31-0.21c2.43-1.21,3.84-1.94,4.79-2.43c1.86-0.96,2.01-1.04,4.49-2.03c2.54-1.03,8.06-1.76,13.89-2.53
				c3.01-0.4,6.12-0.82,8.88-1.28c0.58-0.1,1.13,0.29,1.22,0.87c0.1,0.58-0.29,1.12-0.87,1.22c-2.8,0.47-5.93,0.89-8.96,1.29
				c-5.44,0.72-11.08,1.47-13.37,2.4c-2.4,0.96-2.51,1.02-4.31,1.95c-0.95,0.49-2.37,1.22-4.82,2.45
				C352.88,292.97,348.43,293.5,343.97,293.5z"/>
		</g>
		<g>
			<path d="M332.78,284.85c0.3,1.56-0.74,3.06-2.29,3.36c-1.56,0.29-3.06-0.74-3.36-2.3c-0.29-1.56,0.74-3.06,2.3-3.36
				C330.99,282.27,332.49,283.29,332.78,284.85z"/>
		</g>
		<g>
			<g>
				<path class="st1" d="M362.09,272.25c0.19,1.55-1.7,3.37-4.22,4.07c-2.51,0.7-4.72,0.01-4.91-1.54
					c-0.19-1.55,1.69-3.37,4.21-4.07C359.69,270.02,361.89,270.7,362.09,272.25z"/>
				<path d="M355.96,277.58c-2.22,0-3.78-1.05-3.99-2.68c-0.26-2.08,1.86-4.29,4.93-5.14c0.74-0.21,1.47-0.31,2.17-0.31
					c2.23,0,3.79,1.05,3.99,2.67c0.26,2.05-1.91,4.31-4.93,5.14C357.4,277.48,356.67,277.58,355.96,277.58z M359.08,271.43
					c-0.52,0-1.08,0.08-1.64,0.24c-2.15,0.59-3.61,2.07-3.5,2.99c0.11,0.82,1.89,1.21,3.68,0.71c2.14-0.6,3.61-2.07,3.5-2.99
					C361.04,271.82,360.21,271.43,359.08,271.43z"/>
			</g>
			<g>
				<path d="M359.68,273.06c0.23,1.22-0.57,2.4-1.8,2.63c-1.22,0.23-2.39-0.57-2.62-1.8c-0.23-1.22,0.57-2.4,1.8-2.63
					C358.27,271.03,359.45,271.84,359.68,273.06z"/>
			</g>
		</g>
		<g>
			<path class="st1" d="M367.27,265.77c-0.07-3.04,5.52-16.68,7.36-19.06c1.85-2.38,3.37-2.41,4.37,1.6
				c1,4.01,2.99,15.75,2.77,17.54c-0.21,1.79-1.59,4.37-4,5.07c-2.41,0.71-5.46,0.74-8.21-0.37
				C366.81,269.45,367.27,265.77,367.27,265.77z"/>
			<path d="M399.44,264.46c-0.5,0-1.04,0.09-1.65,0.27c-4.75,1.4-7.21,1.61-8.26,1.61c-0.49,0-0.69-0.04-0.68-0.04
				c-0.12-0.03-0.23-0.05-0.35-0.04c-1.83,0.1-3.79-1.43-5.85-3.31c-0.52-4.43-1.9-12.05-2.62-14.91c-0.25-1-1.01-4.04-3.19-4.04
				c-1,0-1.97,0.65-3.06,2.04c-0.92,1.2-2.8,5.17-4.44,9.3c-0.04,0-0.07,0-0.11,0c-0.6,0-1.22,0.05-1.83,0.15
				c-1.22,0.2-2.85,0.63-4.63,1.19c-2.23-3.66-5.35-8.75-6.96-11.2c-0.94-1.44-1.91-2.14-2.98-2.14c-2.07,0-3.02,2.74-3.12,3.05
				c-0.03,0.08-0.04,0.17-0.05,0.26l-1.07,17.02c-3.9,2.89-15.9,10.34-18.38,11.54c-3.2,1.56-4.88,4.7-5.18,5.31
				c-0.51,1.02-2.43,5.81-2.62,8.76c-0.19,3.22,4.23,7.76,7.67,8.81c1.22,0.37,3.27,1,7.24,1c1.57,0,3.34-0.1,5.25-0.29
				c3.27-0.33,7.1-1.04,10.79-1.73c4.7-0.87,9.15-1.71,12.2-1.73c0.75,0.24,3.7,1.13,6.55,1.13c1.44,0,2.67-0.23,3.64-0.69
				c2.2-1.04,2.96-2.49,3.75-4.03c0.59-1.13,1.19-2.3,2.49-3.57c1.32-1.29,4.81-2.01,7.9-2.64
				C394.11,284.67,400.83,264.46,399.44,264.46z M380.63,264c0.09,0.83,0.12,1.44,0.09,1.72c-0.16,1.39-1.28,3.61-3.25,4.18
				c-2.36,0.69-5.24,0.58-7.51-0.34c-1.94-0.78-1.64-3.64-1.64-3.67c0-0.05,0.01-0.1,0.01-0.15c-0.02-1.19,1.06-4.57,2.42-8.14
				l0.79-2.01c1.49-3.68,3.1-7.17,3.94-8.24c0.93-1.21,1.37-1.22,1.37-1.22c0.01,0,0.56,0.18,1.12,2.43
				c0.65,2.58,1.64,8.05,2.25,12.16L380.63,264z M351.78,246.95c0.27-0.74,0.78-1.46,1.06-1.46c0.02,0,0.44,0.01,1.2,1.18
				c1.53,2.34,4.47,7.11,6.67,10.72c-3.8,1.34-7.82,3.09-9.86,4.45L351.78,246.95z M350.66,264.76c0.31-0.25,0.55-0.47,0.69-0.63
				c0.35-0.41,1.4-1.03,2.83-1.74c0.59,0.18,1.51,0.38,2.94,0.56c0.35,0.05,0.69,0.09,1.03,0.12l4.59,0.3
				c1.71,0.03,3.01-0.06,3.89-0.15c-0.27,1.05-0.43,1.92-0.44,2.5c-0.05,0.62-0.29,4.51,2.97,5.82c1.54,0.62,3.28,0.95,5.03,0.95
				c1.32,0,2.66-0.19,3.87-0.54c2.76-0.81,4.49-3.61,4.77-5.97c0-0.01,0-0.03,0-0.05c1.82,1.47,3.65,2.53,5.64,2.46
				c0.77,0.14,3.46,0.29,9.91-1.62c0.4-0.12-5.92,16.07-8.92,16.69c-3.53,0.73-7.18,1.48-8.94,3.2c-1.55,1.51-2.3,2.95-2.9,4.11
				c-0.74,1.42-1.22,2.35-2.77,3.08c-0.68,0.32-1.6,0.49-2.73,0.49c-2.87,0-6-1.06-6.03-1.07c-0.11-0.04-0.23-0.06-0.35-0.06
				c-3.24,0-7.86,0.86-12.75,1.77c-3.66,0.68-7.44,1.39-10.61,1.71c-1.85,0.19-3.54,0.28-5.04,0.28c-3.66,0-5.44-0.54-6.62-0.9
				c-2.72-0.83-6.29-4.68-6.17-6.65c0.15-2.46,1.87-6.88,2.4-7.95c0.15-0.31,1.57-3.06,4.21-4.33c1.08-0.52,4.84-2.75,8.84-5.25
				c0.02,0.16,0.07,0.31,0.14,0.46l0.26,0.54c1.02,2.11,2.42,5.01,2.49,6.26c0.04,0.85,0.75,1.5,1.59,1.5c0.03,0,0.06,0,0.09,0
				c0.88-0.05,1.55-0.8,1.5-1.68c-0.09-1.75-1.22-4.2-2.8-7.47l-0.25-0.54c-0.13-0.26-0.33-0.47-0.55-0.63
				c2.2-1.4,4.34-2.79,5.98-3.93L350.66,264.76z"/>
		</g>
	</g>
	<g>
		<path d="M384.78,308.88c-1.36,3.57-4.48,5.7-6.97,4.75c-2.49-0.95-3.41-4.62-2.04-8.18c1.35-3.57,4.47-5.69,6.97-4.75
			C385.22,301.65,386.14,305.31,384.78,308.88z M382.61,308.07c0.47-1.23,0.5-2.52,0.09-3.44c-0.26-0.57-0.67-0.99-1.2-1.18
			c-0.23-0.09-0.47-0.13-0.72-0.13c-1.26,0-2.54,1.14-3.18,2.84c-0.8,2.09-0.33,4.08,1.11,4.62c0.22,0.09,0.46,0.13,0.72,0.13
			C380.68,310.92,381.96,309.78,382.61,308.07z"/>
	</g>
	<path d="M519.8,274.22c-0.61-2.53-1.81-5.16-5.03-4.31c-3.09,0.82-2.24,5.96-0.27,7.66c1.44,1.24-0.04,3.43-4.46,4.51
		c-0.61,0.15-1.21,0.28-1.89,0.32c0.82-5.6,0.06-9.69-2.29-12.16c-0.5-0.52-1.29-1.46-2.29-2.66c-3.85-4.56-10.3-12.2-16.42-16.01
		c-6.97-4.34-14.66-4.36-25.32-4.39c-1.44,0-2.93-0.01-4.49-0.02l-0.7,0c-12.82,0-30.39,3.43-37.64,5.81
		c-4.48,1.47-12.56,2.08-18.46,2.52c-1.16,0.09-2.25,0.17-3.24,0.25c-0.05,0-0.09,0.01-0.14,0.02c-0.32,0.07-3.15,0.76-4.29,2.84
		c-0.42,0.77-1.04,2.87-2.1,6.52c-1.26,4.37-2.85,9.81-4.19,12.68c-5.7,12.16-7.28,19.93-4.69,23.11l0.85,1.03
		c3.3,4.01,8.29,10.08,9.05,15.2c0.85,5.72,0.42,23.96,0.41,24.14c0,0.03,0,0.07,0.01,0.1c0.09,1.43,0.44,2.37,1.03,2.77
		c0.98,0.68,2.24,1.44,3.48,1.92c0.72,0.3,1.44,0.5,2.11,0.53c1.42,0.08,2.49,0.21,3.05,0.29c0.36,0.37,0.81,0.85,0.99,1.1
		c0.45,0.61,3,2.68,5.59,3.61c0.21,0.08,0.42,0.15,0.63,0.22c2.15,0.64,8.96,0.69,10.99,0.69c2.39,0,4.47-0.06,5.43-0.16
		c3.15-0.31,4.78-3.4,5.07-5.27c0.07-0.47,0.08-0.98,0.11-1.81c0.01-0.54,0.03-1.22,0.07-2.12c0.01-0.2-0.02-0.39-0.09-0.58
		c0.14-3.12,0.34-7.08,0.86-10.04c0.81-4.65,2.97-7.56,6.4-8.67c2.79-0.9,3.83-0.83,7.1-0.57c0.9,0.08,1.96,0.16,3.25,0.24
		c4.71,0.3,10.98,0.99,13.35,1.26c-0.07,2.15-0.25,7.34-0.35,10.65c-0.1,3.54,0.09,6.34,0.49,7.13c0.4,0.82,1.44,1.46,3.08,2.06
		c1.59,0.59,3.78,1.13,6.58,1.74c0.61,0.13,1.11,0.24,1.45,0.32c0.35,0.09,0.62,0.16,0.85,0.23c0.59,0.22,0.92,0.5,1.74,1.2
		c0.27,0.22,0.57,0.48,0.94,0.79c0.9,0.74,1.92,1.25,2.96,1.65c0.98,0.39,1.99,0.67,2.94,0.93c0.66,0.18,1.3,0.35,1.85,0.55
		c1.51,0.53,5.14,0.73,8.03,0.73c2.25,0,4.21-0.11,5.37-0.3l0.18-0.03c2.21-0.37,4.96-0.82,4.96-4.52v-0.29
		c0.01-0.61,0.01-1.2-0.18-1.97c-0.03-15.92,0.18-28.21,0.62-36.51c0.62-11.51,2.49-17.18,3.48-20.23c0.21-0.63,0.38-1.14,0.48-1.56
		c0.12-0.45,0.23-0.9,0.33-1.33c1.11,0,2.17-0.11,3.16-0.35C519.36,283.57,520.42,276.75,519.8,274.22z M472.96,335.92
		c-1.76,0-4.36,0.24-6.65,0.61c-1.28,0.21-2.22,0.41-2.92,0.62c0-0.5,0.01-1.04,0.03-1.64c0.09-3.23,0.26-8.24,0.33-10.48
		c1.82,0.21,4.67,0.58,5.63,0.82c1.36,0.34,4.01,2.04,4.33,6.06c0.09,1.12,0.17,2.54,0.25,4.04
		C473.66,335.93,473.34,335.92,472.96,335.92z M504.62,288.27c-1.03,3.14-2.96,8.99-3.59,20.78c-0.41,7.66-0.63,18.69-0.63,32.82
		c-3.11-2.95-9.13-3.63-13.71-3.86c-3.06-0.15-7.82-1.03-10.59-1.64c-0.09-1.72-0.19-3.37-0.29-4.63c-0.41-5.21-3.92-7.45-5.92-7.95
		c-1.56-0.39-6.75-0.97-6.97-0.99c-0.02,0-0.04,0.01-0.07,0.01c0,0-0.01-0.01-0.01-0.01c-0.09-0.01-8.48-1.01-14.44-1.38
		c-1.28-0.08-2.33-0.17-3.22-0.24c-1.26-0.1-2.27-0.19-3.19-0.19c-1.54,0-2.83,0.23-4.74,0.85c-4.25,1.37-6.89,4.85-7.85,10.33
		c-0.44,2.54-0.66,5.72-0.81,8.54c-1.05-0.56-2.49-1.09-4.31-1.6c-1.36-0.31-13.33-3.06-15.4-3.12c-1.53-0.04-3.78,0.18-5.67,0.44
		c-0.17-3.63-0.44-7.22-0.69-8.78c-0.19-1.2-0.46-2.41-0.71-3.58c-0.43-1.97-0.83-3.84-0.9-5.55c-0.03-0.59-0.53-1.05-1.11-1.02
		c-0.58,0.03-1.04,0.52-1.01,1.11c0.08,1.89,0.52,3.93,0.95,5.91c0.25,1.15,0.5,2.33,0.69,3.46c0.23,1.45,0.49,4.97,0.65,8.54
		c-1.5-0.1-4.15-0.26-5.71-0.26c-0.43,0-0.74,0.01-0.98,0.04c0.07-5.93,0.07-15.48-0.52-19.49c-0.63-4.19-3.6-8.72-6.51-12.5
		c0.81-2.06,4.19-10.75,5.04-14.71c0.19-0.89,1.16-3.32,2.18-5.88c1.48-3.73,3.17-7.95,3.58-10.15c0.56-3.07,4.1-13.5,5.01-16.16
		c5.82-0.46,12.36-1.08,16.49-2.43c1.94-0.64,5.14-1.47,9.05-2.31c0.03,0.14,0.07,0.29,0.13,0.43c3.44,8.08,3.21,9.53,2.78,12.15
		c-0.07,0.48-0.15,0.99-0.22,1.55c-0.15,1.16,0.68,2.23,1.84,2.37c0.09,0.01,0.18,0.01,0.27,0.01c1.05,0,1.97-0.79,2.11-1.86
		c0.06-0.51,0.13-0.98,0.2-1.41c0.55-3.42,0.66-5.64-2.9-14.1c1.44-0.27,2.94-0.53,4.48-0.78c0.02,0.21,0.06,0.42,0.15,0.63
		c3.29,7.76,2.71,10.92,2.15,13.98c-0.12,0.66-0.25,1.35-0.34,2.07c-0.15,1.16,0.68,2.23,1.85,2.37c0.09,0.01,0.17,0.01,0.27,0.01
		c1.05,0,1.97-0.79,2.1-1.86c0.08-0.6,0.19-1.2,0.3-1.83c0.64-3.45,1.35-7.37-2.25-16.01c1.3-0.18,2.62-0.34,3.93-0.48
		c0.01,0.26,0.06,0.52,0.17,0.78c3.33,7.84,2.81,10.76,2.25,13.86c-0.11,0.62-0.22,1.27-0.31,1.96c-0.14,1.17,0.68,2.23,1.85,2.37
		c0.09,0.01,0.17,0.02,0.26,0.02c1.05,0,1.98-0.79,2.11-1.86c0.08-0.6,0.18-1.17,0.28-1.74c0.59-3.35,1.26-7.14-2.33-15.78
		c2.33-0.17,4.62-0.27,6.81-0.27h0.68c1.56,0.01,3.06,0.02,4.5,0.03c10.3,0.03,17.75,0.05,24.2,4.06
		c5.84,3.64,12.39,11.41,15.92,15.58c1.02,1.21,1.84,2.18,2.38,2.75c1.38,1.45,2.63,4.43,1.71,10.52c-0.14,0.81-0.89,4.28-0.97,4.6
		C504.97,287.22,504.81,287.68,504.62,288.27z"/>
	<path class="st1" d="M461.71,277.23c-0.38-0.77-1.16-1.45-1.96-1.45c-1.13,0-2.22,1.26-1.89,2.33c0.33,1.03,0.92,1.93,2.05,1.93
		c0.34,0,0.66-0.09,0.95-0.22c2.61-1,7.67-5.86,7.67-10.73c0-2.76-2.41-5.42-6.46-5.68c-13.65-0.87-21.02,12.7-24.49,20.85
		c-2.54,5.98-8.89,25.17,10.99,25.42c10.11,0.13,15.05-9.46,13.5-15.68c-0.48-1.92-2.1-3.89-3.55-4.34
		c-0.07-0.02-0.14-0.04-0.22-0.05c-0.08-0.01-0.16-0.03-0.23-0.03c-0.03,0-0.05-0.01-0.08-0.01c-0.01,0-0.04,0-0.05,0
		c-0.12,0-0.24,0.01-0.35,0.04c0,0-0.01,0-0.01,0c-0.09,0.02-0.18,0.06-0.27,0.1c-0.79,0.34-1.38,1.25-1.39,2.13
		c-0.02,1.15,0.83,1.91,1.97,1.91c0.64,0,1.32-0.26,1.79-0.67c0.25,0.52,0.46,1.13,0.64,1.86c2.06,8.67-6.76,13.17-13.73,12.92
		c-9.57-0.34-6.7-13.15-2.25-24.62c2.31-5.96,10.4-18.47,17.17-18.47c3.75,0,4.73,3.29,4.6,5.16
		C465.92,272.9,464.24,274.99,461.71,277.23z"/>
	<g>
		<path class="st1" d="M427.71,264.44c2.51,0.53,11.39,2.38,11.39,10.64c0,8.25-6.11,8.66-8.53,9.19c-2,0.44-2.63,1.66-2.25,3.07
			c0.38,1.4,1.08,14.63,9.31,21.38c7.04,5.78,14.4,5.59,16.94,5.59c4.13,0,5.89-1.22,4.88-2.28c-1.37-1.45-1.01-5.02,1.88-5.06
			c3.02-0.05,3.51,1.9,3.51,3.68c0,1.78-2.41,5.61-10.54,6.16c-11.3,0.77-20.8-6.06-24.9-12.74c-3.68-5.99-7.45-18.01-7.45-18.01
			s-1.59-3.47-3.09-0.28c-1.5,3.19-3.28,8.44-3.75,9.75c-0.47,1.31-0.56,2.44,0.38,2.91c0.94,0.47,2.43,0.56,2.43,0.56v1.78H403
			v-1.78c0,0,2.07,0.09,3.47-0.75c1.41-0.85,1.78-1.87,2.63-3.66c0.84-1.78,9.09-24,9.09-24s1.69-3.56-1.5-3.66
			c-3.19-0.09-10.6,1.97-12.28,5.44c-1.69,3.47,0.09,4.22,1.13,4.41c1.03,0.19,3,0.19,3.09,2.06c0.09,1.88-2.54,2.32-3.76,2.25
			c-2.48-0.15-5.41-3.25-3.81-7.75c1.59-4.5,6.12-7.03,9.82-8.07C418.32,263.16,424.86,263.85,427.71,264.44z M425.21,268.51
			l-4.46,11.56c0,0-0.34,1.6,0.88,1.6c1.21,0,3.8-0.04,5.05-0.08c2.62-0.07,6.31-3.13,6.82-6.34c0.52-3.21-0.26-7.34-5.16-8.07
			C427.21,267.02,425.69,267.34,425.21,268.51z"/>
	</g>
	<g>
		<g>
			<path d="M419.84,327.47c-5.38,0-10.01-3.84-11-9.14c-0.56-2.94,0.07-5.92,1.76-8.39c1.69-2.47,4.24-4.13,7.18-4.68
				c0.69-0.13,1.39-0.19,2.07-0.19c5.38,0,10.01,3.84,11,9.14c0.55,2.94-0.07,5.92-1.76,8.39c-1.69,2.47-4.24,4.13-7.18,4.68
				C421.23,327.41,420.54,327.47,419.84,327.47z M419.87,307.05c-0.56,0-1.14,0.05-1.71,0.16c-2.42,0.45-4.52,1.82-5.91,3.85
				c-1.39,2.03-1.91,4.48-1.45,6.9c0.82,4.36,4.62,7.52,9.05,7.52c0.57,0,1.14-0.05,1.71-0.16c2.42-0.46,4.51-1.82,5.91-3.85
				c1.39-2.03,1.91-4.48,1.45-6.9C428.09,310.21,424.29,307.05,419.87,307.05z"/>
		</g>
		<path class="st1" d="M419.87,319.33c-1.62,0-3.01-1.16-3.32-2.76c-0.17-0.89,0.02-1.78,0.53-2.53c0.51-0.74,1.28-1.25,2.17-1.41
			c0.2-0.04,0.41-0.06,0.62-0.06c1.63,0,3.02,1.16,3.32,2.76c0.17,0.89-0.03,1.78-0.53,2.53c-0.51,0.74-1.28,1.25-2.17,1.41
			C420.3,319.31,420.09,319.33,419.87,319.33z M419.88,314.7c-0.07,0-0.15,0-0.23,0.02c-0.33,0.07-0.61,0.25-0.8,0.53
			c-0.2,0.27-0.26,0.61-0.2,0.94c0.13,0.67,0.78,1.13,1.47,1c0.33-0.06,0.61-0.25,0.8-0.52c0.19-0.28,0.26-0.61,0.19-0.94
			C421,315.12,420.48,314.7,419.88,314.7z"/>
		<path d="M419.88,314.7c-0.07,0-0.15,0-0.23,0.02c-0.33,0.07-0.61,0.25-0.8,0.53c-0.2,0.27-0.26,0.61-0.2,0.94
			c0.13,0.67,0.78,1.13,1.47,1c0.33-0.06,0.61-0.25,0.8-0.52c0.19-0.28,0.26-0.61,0.19-0.94C421,315.12,420.48,314.7,419.88,314.7z"
			/>
		<path d="M419.87,307.05c-0.56,0-1.14,0.05-1.71,0.16c-2.42,0.45-4.52,1.82-5.91,3.85c-1.39,2.03-1.91,4.48-1.45,6.9
			c0.82,4.36,4.62,7.52,9.05,7.52c0.57,0,1.14-0.05,1.71-0.16c2.42-0.46,4.51-1.82,5.91-3.85c1.39-2.03,1.91-4.48,1.45-6.9
			C428.09,310.21,424.29,307.05,419.87,307.05z M419.87,319.33c-1.62,0-3.01-1.16-3.32-2.76c-0.17-0.89,0.02-1.78,0.53-2.53
			c0.51-0.74,1.28-1.25,2.17-1.41c0.2-0.04,0.41-0.06,0.62-0.06c1.63,0,3.02,1.16,3.32,2.76c0.17,0.89-0.03,1.78-0.53,2.53
			c-0.51,0.74-1.28,1.25-2.17,1.41C420.3,319.31,420.09,319.33,419.87,319.33z"/>
	</g>
	<g>
		<g>
			<path d="M488.23,321.72c-5.38,0-10.01-3.84-11-9.14c-0.56-2.94,0.07-5.92,1.76-8.39c1.69-2.47,4.24-4.13,7.18-4.68
				c0.69-0.13,1.39-0.2,2.08-0.2c5.38,0,10,3.84,10.99,9.14c0.56,2.94-0.07,5.92-1.76,8.39c-1.69,2.47-4.24,4.13-7.18,4.68
				C489.61,321.65,488.92,321.72,488.23,321.72z M488.25,301.3c-0.57,0-1.14,0.05-1.71,0.16c-2.42,0.46-4.52,1.82-5.91,3.85
				c-1.39,2.03-1.91,4.48-1.45,6.9c0.82,4.36,4.62,7.52,9.05,7.52c0.57,0,1.14-0.05,1.71-0.16c2.41-0.46,4.51-1.82,5.9-3.85
				s1.91-4.48,1.45-6.9C496.47,304.46,492.67,301.3,488.25,301.3z"/>
		</g>
		<path class="st1" d="M488.26,313.58c-1.62,0-3.02-1.16-3.32-2.76c-0.17-0.89,0.02-1.79,0.53-2.53c0.51-0.74,1.28-1.25,2.17-1.41
			c0.2-0.04,0.42-0.06,0.62-0.06c1.63,0,3.02,1.16,3.32,2.76c0.17,0.89-0.03,1.78-0.53,2.53c-0.51,0.75-1.28,1.25-2.17,1.42
			C488.68,313.56,488.47,313.58,488.26,313.58z M488.26,308.94c-0.07,0-0.15,0.01-0.23,0.02c-0.33,0.07-0.61,0.25-0.8,0.53
			c-0.19,0.27-0.26,0.61-0.2,0.94c0.13,0.67,0.78,1.13,1.46,1c0.33-0.06,0.61-0.25,0.8-0.52c0.19-0.28,0.26-0.61,0.2-0.94
			C489.38,309.37,488.86,308.94,488.26,308.94z"/>
		<path d="M488.26,308.94c-0.07,0-0.15,0.01-0.23,0.02c-0.33,0.07-0.61,0.25-0.8,0.53c-0.19,0.27-0.26,0.61-0.2,0.94
			c0.13,0.67,0.78,1.13,1.46,1c0.33-0.06,0.61-0.25,0.8-0.52c0.19-0.28,0.26-0.61,0.2-0.94
			C489.38,309.37,488.86,308.94,488.26,308.94z"/>
		<path d="M488.25,301.3c-0.57,0-1.14,0.05-1.71,0.16c-2.42,0.46-4.52,1.82-5.91,3.85c-1.39,2.03-1.91,4.48-1.45,6.9
			c0.82,4.36,4.62,7.52,9.05,7.52c0.57,0,1.14-0.05,1.71-0.16c2.41-0.46,4.51-1.82,5.9-3.85s1.91-4.48,1.45-6.9
			C496.47,304.46,492.67,301.3,488.25,301.3z M488.26,313.58c-1.62,0-3.02-1.16-3.32-2.76c-0.17-0.89,0.02-1.79,0.53-2.53
			c0.51-0.74,1.28-1.25,2.17-1.41c0.2-0.04,0.42-0.06,0.62-0.06c1.63,0,3.02,1.16,3.32,2.76c0.17,0.89-0.03,1.78-0.53,2.53
			c-0.51,0.75-1.28,1.25-2.17,1.42C488.68,313.56,488.47,313.58,488.26,313.58z"/>
	</g>
	<g>
		<path class="st1" d="M476.31,267.27c1.52-0.7,2.33-0.91,2.6-0.49c0.28,0.42-0.77,1.18-2.95,3.87c-3.99,4.89-5.62,12.02-6.39,15.9
			c-0.77,3.87-1.34,12.65,4.41,14.06c4.72,1.16,13.83,0.78,17.56-13.65c3.73-14.43,0.87-19.02-2.5-19.66
			c-3.38-0.63-8.01,1.6-9.78,4.7c-1.76,3.1-2.12,9.96,0.18,10.65c1.25,0.38,2.3,0.19,2.06-0.31c-0.59-1.25-0.07-2.42,1.63-2.38
			c1.62,0.04,2.09,0.98,2.09,2.59c0,1.34-1.97,3.61-5,3.58c-3.31-0.03-4.99-3.67-4.57-7.75c0.6-5.69,4.87-15.36,14.59-14.53
			c2.46,0.21,6.4,1.47,7.71,6.3c1.13,4.17,1.58,10.53-1.23,17.77c-2.81,7.25-9.44,16.3-20.98,16.05c-13.55-0.3-11.72-12.24-11.83-15
			C463.82,286.23,466.29,271.92,476.31,267.27z"/>
	</g>
</g>
</svg>
