<svg xmlns="http://www.w3.org/2000/svg" viewBox="0 0 363.7 36"><defs><style>.cls-1{fill:#231815;}.cls-2{fill:#e50012;}.cls-3{fill:#fff;}</style></defs><g id="レイヤー_2" data-name="レイヤー 2"><g id="レイヤー_1-2" data-name="レイヤー 1"><path class="cls-1" d="M35.86,3.17l-.62.09.18-2.7.9-.13c.51-.07.74.1.71.64a.74.74,0,0,1-.37.66h0a.28.28,0,0,1,.28.3c0,.22,0,.68,0,.85A.22.22,0,0,0,37,3V3l-.67.1a.4.4,0,0,1,0-.15c0-.24,0-.47,0-.63s0-.26-.19-.25l-.2,0ZM36,1.62l.21,0c.18,0,.23-.2.24-.37,0-.32-.1-.32-.4-.27Z"/><path class="cls-1" d="M37.18,3,37.47.3,38.88.15l-.06.54L38,.77l-.06.5.78-.08-.06.54-.77.08-.07.58.84-.09-.06.54Z"/><path class="cls-1" d="M40.21,1l0-.17c0-.23,0-.34-.14-.34s-.26.12-.28.29L39.6,2.13c0,.15,0,.23.18.23s.27-.24.3-.4l0-.24.63,0L40.68,2a1,1,0,0,1-1,.83c-.57,0-.74-.27-.66-.81l.18-1.1a.94.94,0,0,1,1-.9c.53,0,.81.19.72.74l0,.22Z"/><path class="cls-1" d="M42.68,1.9c-.13.6-.41.91-1,.91s-.78-.32-.64-.92L41.23.81a1,1,0,0,1,1-.78c.55,0,.78.29.67.8Zm-.39-1c0-.16.06-.35-.14-.35s-.27.19-.31.35L41.61,2c0,.15-.06.38.14.38s.26-.23.3-.38Z"/><path class="cls-1" d="M43.4,3.05h-.62l.58-3h.91s.72.31.6.84a.73.73,0,0,1-.46.6h0a.28.28,0,0,1,.23.34c0,.22-.12.67-.13.84a.19.19,0,0,0,0,.09v.33h-.68a.38.38,0,0,1,0-.15c0-.22.1-.43.11-.59S44,2,43.84,2h-.21Zm.34-2H44c.18,0,.26-.17.29-.33s-.05-.33-.36-.32Z"/><path class="cls-1" d="M44.73,2.76,45.44.14l.68,0a1.22,1.22,0,0,1,.66.16c.2.15.17.41.1.66l-.31,1.16a.83.83,0,0,1-.42.55,1.1,1.1,0,0,1-.59.09Zm.75-.44c.41.05.46-.12.54-.46L46.25,1c.08-.31,0-.33-.32-.35Z"/><path class="cls-1" d="M49.25,1.7l.08-.15c.11-.21.09-.34,0-.37s-.28,0-.36.19l-.63,1.18c-.07.14-.05.23.1.28s.33-.14.41-.29l.11-.21.6.16-.15.3a1,1,0,0,1-1.24.46c-.55-.16-.62-.5-.36-1l.52-1A.94.94,0,0,1,49.51.74c.51.15.7.44.45.93l-.11.2Z"/><path class="cls-1" d="M51.2,3.67A1,1,0,0,1,49.85,4c-.55-.32-.53-.66-.12-1.12L50.47,2a.94.94,0,0,1,1.27-.18c.48.27.54.63.19,1Zm.16-1.1c.11-.12.23-.28.06-.38s-.33,0-.44.16l-.74.83c-.11.12-.24.3-.07.4s.35-.06.45-.18Z"/><path class="cls-1" d="M52.36,4.06h0L51.21,5l-.45-.37L52.88,3l.5.4-.82,1.25h0l1.14-1,.45.38L52,5.72l-.49-.41Z"/><path class="cls-1" d="M52.56,6l1.82-1.93.45.43L53.49,5.8h0L55.3,5l.45.43L53.09,6.51Z"/><path class="cls-1" d="M53.63,7l2.3-1.44,1,1-.46.29-.56-.58-.42.26.54.56-.46.29L55,6.89l-.5.31.59.61-.46.29Z"/><path class="cls-1" d="M56.51,7.93h0l-1.27.8-.4-.44,2.35-1.36.43.48-1,1.12h0l1.27-.8.39.44L56,9.53l-.43-.48Z"/><path class="cls-1" d="M56.14,9.76l2.4-1.26.4.48-2.4,1.26Z"/><path class="cls-2" d="M18.19,19.69c1,1.25,2.79,3.28,3.06,5.06s.13,7.36.13,7.36,0,.5.17.59a3.54,3.54,0,0,0,1.47.67,9.47,9.47,0,0,1,1.1.12s.3.3.42.45a4.46,4.46,0,0,0,1.66,1,25.28,25.28,0,0,0,4.84.15,1.57,1.57,0,0,0,1.25-1.32c.07-.49.07-2.88.34-4.39a3.3,3.3,0,0,1,2.15-2.87c1.17-.38,1.44-.23,3.25-.11s4.35.41,4.35.41-.08,2.23-.11,3.52a7.07,7.07,0,0,0,.11,2c.26.53,2.5.91,3.1,1.06s.61.23,1.25.76a6.65,6.65,0,0,0,2.19.86,13.46,13.46,0,0,0,3.89.12c.68-.12,1.29-.19,1.29-1.06s0-7.49.19-11.72a22.19,22.19,0,0,1,1.21-6.65c.19-.72.94-3.57-.3-4.88-.73-.77-3.29-4.16-5.6-5.6S44.65,4,40.75,4A44.63,44.63,0,0,0,29.26,5.7a36.08,36.08,0,0,1-6.63.85,1.84,1.84,0,0,0-1.09.7c-.28.52-1.18,4.27-1.89,5.79S17.2,18.47,18.19,19.69Z"/><path class="cls-3" d="M8.27,8.31l.29-4.82S9,2.06,9.83,3.29,12,6.71,12,6.71Z"/><path class="cls-2" d="M20,9.72c-1.83.11-3.4-3.74-6.35-3.26A15.36,15.36,0,0,0,8.51,8.54a55.77,55.77,0,0,1-6,3.86,3.3,3.3,0,0,0-1.42,1.45,9.22,9.22,0,0,0-.76,2.53c0,.78,1.16,2.05,2.09,2.34a8.48,8.48,0,0,0,3.66.2c2.23-.22,5.34-1.05,7-1.05A5,5,0,0,0,16,18c1-.48.82-1.28,1.8-2.23s2.82-.57,3.21-1.56,2.91-5.3,1.88-5A7.1,7.1,0,0,1,20,9.72Z"/><path class="cls-3" d="M6.52,17.63a23.28,23.28,0,0,1-4.74-.52.32.32,0,1,1,.15-.63c1.65.4,6,.94,8-.06l1.45-.73a10.61,10.61,0,0,1,1.36-.62,23.92,23.92,0,0,1,4.2-.77c.91-.12,1.85-.24,2.69-.38a.32.32,0,0,1,.37.26.32.32,0,0,1-.27.37c-.84.14-1.79.27-2.7.39a24,24,0,0,0-4.05.73,9.08,9.08,0,0,0-1.3.59L10.17,17A8.7,8.7,0,0,1,6.52,17.63Z"/><path class="cls-1" d="M3.14,15a.88.88,0,0,1-.7,1,.86.86,0,0,1-1-.69.87.87,0,0,1,.69-1A.89.89,0,0,1,3.14,15Z"/><path class="cls-3" d="M12,11.21c.06.47-.51,1-1.28,1.23s-1.42,0-1.48-.47.51-1,1.27-1.23S11.94,10.74,12,11.21Z"/><path class="cls-1" d="M10.15,12.82c-.67,0-1.15-.32-1.21-.81s.56-1.3,1.49-1.56a2.61,2.61,0,0,1,.66-.09c.67,0,1.14.32,1.2.81s-.57,1.3-1.49,1.56A2.48,2.48,0,0,1,10.15,12.82ZM11.09,11a1.77,1.77,0,0,0-.5.07c-.65.18-1.09.63-1.06.91s.57.36,1.11.21,1.1-.63,1.06-.9S11.43,11,11.09,11Z"/><path class="cls-1" d="M11.27,11.45a.68.68,0,1,1-1.34.25.68.68,0,0,1,1.34-.25Z"/><path class="cls-3" d="M13.56,9.25a21.24,21.24,0,0,1,2.23-5.77c.56-.72,1-.73,1.32.49A35.18,35.18,0,0,1,18,9.27a1.87,1.87,0,0,1-1.21,1.53,3.8,3.8,0,0,1-2.48-.11C13.43,10.36,13.56,9.25,13.56,9.25Z"/><path class="cls-1" d="M23.29,8.85a1.85,1.85,0,0,0-.49.08,9.26,9.26,0,0,1-2.5.49h-.21a.17.17,0,0,0-.1,0,2.89,2.89,0,0,1-1.77-1c-.16-1.34-.58-3.65-.8-4.51-.07-.3-.3-1.22-1-1.22-.3,0-.6.19-.92.62A16.55,16.55,0,0,0,14.19,6.1h0a3.39,3.39,0,0,0-.55,0,10.85,10.85,0,0,0-1.41.36c-.67-1.11-1.61-2.64-2.1-3.38-.28-.44-.58-.65-.9-.65-.63,0-.91.83-.94.92a.24.24,0,0,0,0,.08L7.92,8.62c-1.18.87-4.81,3.12-5.56,3.49a3.73,3.73,0,0,0-1.57,1.6A10,10,0,0,0,0,16.36c-.06,1,1.28,2.35,2.32,2.67a6.85,6.85,0,0,0,2.19.3,15.56,15.56,0,0,0,1.59-.09c1-.1,2.15-.32,3.26-.52a24.8,24.8,0,0,1,3.69-.53,7.3,7.3,0,0,0,2,.34,2.54,2.54,0,0,0,1.1-.21,2.28,2.28,0,0,0,1.14-1.21A3.53,3.53,0,0,1,18,16a5.88,5.88,0,0,1,2.39-.8C21.68,15,23.72,8.85,23.29,8.85Zm-5.68-.14a3.62,3.62,0,0,1,0,.52,1.6,1.6,0,0,1-1,1.27,3.67,3.67,0,0,1-2.27-.1c-.59-.24-.5-1.11-.5-1.11v0a11.26,11.26,0,0,1,.74-2.46l.24-.61a13.62,13.62,0,0,1,1.19-2.49c.28-.37.41-.37.41-.37s.17.06.34.73.5,2.44.68,3.68ZM8.88,3.55c.08-.22.24-.44.32-.44s.13,0,.36.36c.47.7,1.35,2.15,2,3.24a15.52,15.52,0,0,0-3,1.35ZM8.54,8.94a1.44,1.44,0,0,0,.21-.19,3.89,3.89,0,0,1,.86-.53,4.64,4.64,0,0,0,.89.17l.31,0,1.39.09a11.56,11.56,0,0,0,1.17,0,3.36,3.36,0,0,0-.13.75,1.69,1.69,0,0,0,.9,1.76,4,4,0,0,0,1.52.29,4.14,4.14,0,0,0,1.17-.17,2.18,2.18,0,0,0,1.44-1.8v0A2.66,2.66,0,0,0,20,10a7.49,7.49,0,0,0,3-.49c.12,0-1.79,4.86-2.7,5a6,6,0,0,0-2.71,1,4.22,4.22,0,0,0-.87,1.24,1.67,1.67,0,0,1-.84.93,2,2,0,0,1-.83.15,6.88,6.88,0,0,1-1.82-.32.22.22,0,0,0-.11,0,24.87,24.87,0,0,0-3.85.53C8.14,18.29,7,18.5,6,18.6a14.62,14.62,0,0,1-1.53.09,6,6,0,0,1-2-.28c-.82-.25-1.9-1.41-1.87-2A9.15,9.15,0,0,1,1.37,14a3,3,0,0,1,1.27-1.31c.33-.16,1.46-.84,2.68-1.59a.25.25,0,0,0,0,.14l.08.16a8.33,8.33,0,0,1,.75,1.9.48.48,0,0,0,.48.45h0a.48.48,0,0,0,.45-.51A7.3,7.3,0,0,0,6.3,11l-.07-.16a.52.52,0,0,0-.17-.19c.67-.42,1.31-.84,1.81-1.19Z"/><path class="cls-1" d="M18.86,22.29c-.41,1.07-1.35,1.72-2.11,1.43s-1-1.39-.62-2.47,1.36-1.73,2.11-1.44S19.27,21.21,18.86,22.29ZM18.2,22a1.35,1.35,0,0,0,0-1,.67.67,0,0,0-.36-.36.78.78,0,0,0-.22,0,1.18,1.18,0,0,0-1,.86c-.24.64-.1,1.24.33,1.4a.57.57,0,0,0,.22,0A1.16,1.16,0,0,0,18.2,22Z"/><path class="cls-1" d="M17.65,21.24c-.08,0-.28.16-.4.47s-.05.6,0,.62h0c.08,0,.28-.15.4-.47s.05-.6,0-.62Z"/><path class="cls-1" d="M59.26,12.24c-.19-.76-.55-1.56-1.53-1.3s-.68,1.8-.08,2.32c.43.37,0,1-1.35,1.36a2.7,2.7,0,0,1-.58.1C56,13,55.74,11.79,55,11c-.15-.16-.39-.44-.7-.8a24.92,24.92,0,0,0-5-4.84c-2.11-1.32-4.45-1.32-7.68-1.33H40.11A45.55,45.55,0,0,0,28.7,5.82a30,30,0,0,1-5.6.76l-1,.07h0a2.13,2.13,0,0,0-1.31.86,17.16,17.16,0,0,0-.63,2,35,35,0,0,1-1.27,3.83c-1.73,3.68-2.21,6-1.43,7l.26.31c1,1.22,2.51,3.05,2.74,4.6.26,1.73.13,7.25.13,7.3v0a1.1,1.1,0,0,0,.31.84,4.89,4.89,0,0,0,1.06.58,2,2,0,0,0,.64.16c.43,0,.75.07.92.09a3.74,3.74,0,0,1,.3.33,4.62,4.62,0,0,0,1.7,1.09l.19.07a19.8,19.8,0,0,0,3.33.21c.72,0,1.35,0,1.64-.05a1.88,1.88,0,0,0,1.54-1.59,3.82,3.82,0,0,0,0-.55c0-.16,0-.37,0-.64a.47.47,0,0,0,0-.17,24.91,24.91,0,0,1,.26-3,3,3,0,0,1,1.94-2.62,4.37,4.37,0,0,1,2.15-.17l1,.07c1.43.09,3.33.3,4,.38,0,.65-.08,2.22-.11,3.22a7,7,0,0,0,.15,2.16,1.63,1.63,0,0,0,.93.62,17,17,0,0,0,2,.53l.44.09.26.08a1.59,1.59,0,0,1,.53.36l.28.24a3.33,3.33,0,0,0,.9.5,8.16,8.16,0,0,0,.89.27l.56.17a10,10,0,0,0,2.44.22,11,11,0,0,0,1.62-.09h.06c.67-.11,1.5-.25,1.5-1.37v-.08a2.6,2.6,0,0,0,0-.6c0-4.82,0-8.53.19-11a21.69,21.69,0,0,1,1-6.12,4,4,0,0,0,.15-.47c0-.14.07-.27.1-.4a3.72,3.72,0,0,0,1-.11C59.12,15.07,59.44,13,59.26,12.24ZM45.53,30.46a13,13,0,0,0-2,.19,7.55,7.55,0,0,0-.89.18c0-.15,0-.31,0-.49,0-1,.08-2.49.1-3.17.55.07,1.42.18,1.7.25a2,2,0,0,1,1.31,1.83c0,.34.06.77.08,1.22ZM55.1,15.85A22.09,22.09,0,0,0,54,22.13c-.12,2.32-.19,5.66-.19,9.93-.94-.89-2.76-1.1-4.15-1.17a23.24,23.24,0,0,1-3.2-.49c0-.52-.06-1-.09-1.4a2.55,2.55,0,0,0-1.79-2.41c-.47-.11-2-.29-2.11-.3h0s-2.56-.3-4.37-.41l-1-.08c-.38,0-.68-.05-1-.05a4.54,4.54,0,0,0-1.44.25,3.61,3.61,0,0,0-2.37,3.13,22.85,22.85,0,0,0-.24,2.58,6.33,6.33,0,0,0-1.31-.48c-.41-.1-4-.93-4.65-.95a12.39,12.39,0,0,0-1.72.14c-.05-1.1-.13-2.19-.2-2.66S24.1,27,24,26.68A10.06,10.06,0,0,1,23.75,25a.32.32,0,1,0-.64,0,10.53,10.53,0,0,0,.28,1.79c.08.34.16.7.21,1s.15,1.51.2,2.58c-.46,0-1.26-.07-1.73-.07h-.29a53.41,53.41,0,0,0-.16-5.89,9.22,9.22,0,0,0-2-3.79,43.42,43.42,0,0,0,1.52-4.45c.06-.27.35-1,.66-1.78a21.88,21.88,0,0,0,1.08-3.06c.17-.93,1.24-4.09,1.52-4.89a25.43,25.43,0,0,0,5-.73,26.68,26.68,0,0,1,2.74-.7.93.93,0,0,0,0,.13c1,2.44,1,2.88.84,3.67,0,.15-.05.3-.07.47a.65.65,0,0,0,.56.72h.08a.64.64,0,0,0,.64-.56q0-.23.06-.42c.17-1,.2-1.71-.88-4.27l1.36-.23a.46.46,0,0,0,0,.19c1,2.34.82,3.3.65,4.22a5.93,5.93,0,0,0-.1.63.64.64,0,0,0,.56.72H36a.63.63,0,0,0,.63-.56l.09-.55c.2-1.05.41-2.23-.67-4.84.39-.06.79-.11,1.18-.15a1,1,0,0,0,0,.24c1,2.37.85,3.25.69,4.19,0,.19-.07.38-.1.59a.65.65,0,0,0,.56.72h.08a.64.64,0,0,0,.64-.56c0-.18.05-.35.08-.53.18-1,.38-2.15-.7-4.77.7,0,1.39-.08,2.06-.08h1.56c3.12,0,5.37,0,7.32,1.23A25.14,25.14,0,0,1,54.3,10c.31.37.55.66.72.83.41.44.79,1.34.51,3.18,0,.25-.26,1.3-.29,1.4S55.16,15.67,55.1,15.85Z"/><path class="cls-3" d="M42.13,12.71a.74.74,0,0,0-.6-.43A.6.6,0,0,0,41,13c.1.31.28.58.62.58a.68.68,0,0,0,.29-.06,4.25,4.25,0,0,0,2.32-3.25,1.87,1.87,0,0,0-1.95-1.71c-4.13-.27-6.36,3.84-7.41,6.3-.77,1.81-2.69,7.61,3.32,7.69a4,4,0,0,0,4.08-4.74,1.93,1.93,0,0,0-1.07-1.31l-.06,0h-.22l-.08,0a.75.75,0,0,0-.42.65.55.55,0,0,0,.59.58.83.83,0,0,0,.54-.21,2.88,2.88,0,0,1,.2.57c.62,2.62-2.05,4-4.16,3.9-2.89-.1-2-4-.68-7.44C37.57,12.74,40,9,42.07,9a1.39,1.39,0,0,1,1.39,1.56A3.22,3.22,0,0,1,42.13,12.71Z"/><path class="cls-3" d="M31.36,9.32c.69.16,3.11.72,3.11,3.21a2.44,2.44,0,0,1-2.33,2.78.72.72,0,0,0-.61.93c.1.43.29,4.43,2.53,6.47a6.44,6.44,0,0,0,4.62,1.69c1.12,0,1.6-.37,1.33-.69s-.28-1.52.51-1.53,1,.57,1,1.11S40.82,25,38.6,25.15a7.46,7.46,0,0,1-6.78-3.85,34.42,34.42,0,0,1-2-5.45s-.43-1-.84-.08-.9,2.55-1,2.95-.16.73.1.87a1.71,1.71,0,0,0,.66.17v.54H24.63v-.54a1.84,1.84,0,0,0,.95-.22c.38-.26.48-.57.71-1.11s2.48-7.26,2.48-7.26.46-1.07-.41-1.1-2.89.59-3.34,1.64,0,1.28.3,1.34.82,0,.84.62-.69.7-1,.68c-.67,0-1.47-1-1-2.34a4,4,0,0,1,2.68-2.45A9.16,9.16,0,0,1,31.36,9.32Zm-.27.76-1.35,3.49s-.1.49.27.49l1.52,0a2.57,2.57,0,0,0,2.07-1.92A1.9,1.9,0,0,0,32,9.68.84.84,0,0,0,31.09,10.08Z"/><path class="cls-3" d="M29.47,27.91a3.4,3.4,0,0,1-3.33-2.77,3.33,3.33,0,0,1,.53-2.53,3.38,3.38,0,1,1,2.8,5.3Zm0-6.18a2.94,2.94,0,0,0-.51.05,2.79,2.79,0,0,0,.51,5.53,2.94,2.94,0,0,0,.51,0,2.79,2.79,0,0,0-.51-5.53Z"/><path class="cls-3" d="M29.47,25.45a1,1,0,0,1-1-.84,1,1,0,0,1,.82-1.19l.19,0a1,1,0,0,1,1,.83,1,1,0,0,1-.16.77,1,1,0,0,1-.66.43Zm0-1.41h-.07a.42.42,0,0,0-.25.16.38.38,0,0,0,.39.59.4.4,0,0,0,.24-.16.38.38,0,0,0,.06-.29A.38.38,0,0,0,29.48,24Z"/><path class="cls-1" d="M29.48,24h-.07a.42.42,0,0,0-.25.16.38.38,0,0,0,.39.59.4.4,0,0,0,.24-.16.38.38,0,0,0,.06-.29A.38.38,0,0,0,29.48,24Z"/><path class="cls-1" d="M29.47,21.73a2.94,2.94,0,0,0-.51.05,2.79,2.79,0,0,0,.51,5.53,2.94,2.94,0,0,0,.51,0,2.79,2.79,0,0,0-.51-5.53Zm0,3.72a1,1,0,0,1-1-.84,1,1,0,0,1,.82-1.19l.19,0a1,1,0,0,1,1,.83,1,1,0,0,1-.16.77,1,1,0,0,1-.66.43Z"/><path class="cls-3" d="M50.15,26.17a3.4,3.4,0,0,1-3.33-2.77,3.33,3.33,0,0,1,.53-2.53,3.39,3.39,0,0,1,6.13,1.29,3.4,3.4,0,0,1-2.71,3.95A3.26,3.26,0,0,1,50.15,26.17Zm0-6.18a2.94,2.94,0,0,0-.51.05,2.79,2.79,0,0,0,.51,5.53,2.94,2.94,0,0,0,.51-.05A2.79,2.79,0,0,0,50.15,20Z"/><path class="cls-3" d="M50.15,23.71a1,1,0,0,1-1-.84A1,1,0,0,1,50,21.68l.19,0a1,1,0,0,1,1,.83,1,1,0,0,1-.16.77,1,1,0,0,1-.66.43Zm0-1.41h-.07a.42.42,0,0,0-.25.16.39.39,0,0,0-.06.28.39.39,0,0,0,.45.31.4.4,0,0,0,.24-.16.38.38,0,0,0,.06-.29A.38.38,0,0,0,50.16,22.3Z"/><path class="cls-1" d="M50.16,22.3h-.07a.42.42,0,0,0-.25.16.39.39,0,0,0-.06.28.39.39,0,0,0,.45.31.4.4,0,0,0,.24-.16.38.38,0,0,0,.06-.29A.38.38,0,0,0,50.16,22.3Z"/><path class="cls-1" d="M50.15,20a2.94,2.94,0,0,0-.51.05,2.79,2.79,0,0,0,.51,5.53,2.94,2.94,0,0,0,.51-.05A2.79,2.79,0,0,0,50.15,20Zm0,3.72a1,1,0,0,1-1-.84A1,1,0,0,1,50,21.68l.19,0a1,1,0,0,1,1,.83,1,1,0,0,1-.16.77,1,1,0,0,1-.66.43Z"/><path class="cls-3" d="M46.54,9.7c.46-.21.7-.28.79-.15s-.23.36-.89,1.17a11.49,11.49,0,0,0-1.94,4.81c-.23,1.17-.4,3.83,1.34,4.25,1.42.35,4.18.24,5.31-4.13s.26-5.75-.76-5.94a3.13,3.13,0,0,0-3,1.42c-.54.93-.65,3,.05,3.22.38.11.7.06.62-.1-.18-.37,0-.73.5-.72s.63.3.63.78a1.45,1.45,0,0,1-1.51,1.09c-1,0-1.51-1.11-1.38-2.35.18-1.72,1.47-4.64,4.41-4.39a2.52,2.52,0,0,1,2.33,1.9,8.68,8.68,0,0,1-.37,5.38c-.86,2.19-2.86,4.93-6.35,4.85-4.1-.09-3.54-3.7-3.58-4.53S43.51,11.11,46.54,9.7Z"/><path class="cls-1" d="M71.33,9.14h9.14V23.78l15.22-3.69v4.69L71.33,30.59Z"/><path class="cls-1" d="M120.06,9.14V30.46H97.72V27.41h13.2V13.2H97.72V9.14Z"/><path class="cls-1" d="M146.45,17.26v3H122.09v-3Z"/><path class="cls-1" d="M148.48,30.46V9.14h9.14v8.52l14.21.77v4.06l-14.21-.78v8.75Zm15.39-18.28,1.63-4.06h3.09L167,12.18Zm4.1,0,1.64-4.06h3.11l-1.66,4.06Z"/><path class="cls-1" d="M197.21,9.14V30.46H174.88V27.41h13.19V13.2H174.88V9.14Z"/><path class="cls-1" d="M200.26,30.46V27.41h8l7.41-18.27H225l-8.64,21.32Zm9.13-21.32v3h-9.13v-3Z"/><path class="cls-1" d="M249,30.46H226.65V9.14h8.12v6.43L249,14.79v4.06l-14.22.77v7.79H249Zm-6.62-18.28L244,8.12h3.09l-1.64,4.06Zm4.1,0,1.64-4.06h3.11l-1.66,4.06Z"/><path class="cls-1" d="M252,27.41h23.35v3.05H252Zm1-18.27h22.33v3H253.05Z"/><path d="M300.74,24.32a5.65,5.65,0,0,1-7.86,0c-1.47-1.47-1.43-3.29-1.43-5.8s0-4.33,1.43-5.8a5.65,5.65,0,0,1,7.86,0c1.47,1.47,1.45,3.29,1.45,5.8S302.21,22.85,300.74,24.32Zm-2.1-9.88a2.36,2.36,0,0,0-1.82-.78,2.42,2.42,0,0,0-1.84.78c-.55.61-.69,1.28-.69,4.08s.14,3.47.69,4.08a2.42,2.42,0,0,0,1.84.78,2.36,2.36,0,0,0,1.82-.78c.55-.61.71-1.28.71-4.08S299.19,15.05,298.64,14.44Z"/><path d="M313.68,25.79l-5.76-8.93v8.93h-2.83V11.25h2.53l5.76,8.9v-8.9h2.83V25.79Z"/><path d="M319.6,25.79V11.25h2.84v12H329v2.54Z"/><path d="M331.33,25.79V11.25h2.84V25.79Z"/><path d="M346.16,25.79l-5.76-8.93v8.93h-2.84V11.25h2.53l5.76,8.9v-8.9h2.84V25.79Z"/><path d="M352.07,25.79V11.25h9.58v2.53h-6.74v3.41h5.74v2.53h-5.74v3.53h6.74v2.54Z"/><rect class="cls-2" x="290.61" y="31.47" width="73.09" height="3.05"/><rect class="cls-2" x="290.61" y="3.05" width="73.09" height="3.05"/></g></g></svg>